# xmcd
#
# Track frame offsets: 
#        150
#        18796
#        40233
#        51307
#        72130
#        81578
#        98980
#        116508
#        130905
#        151726
#        170608
#
# Disc length: 2413 seconds
#
# Revision: 0
# Processed by: cddbd v1.5.2PL0 Copyright (c) Steve Scherf et al.
# Submitted via: ExactAudioCopy v0.99pb4
#
DISCID=8c096b0b
DTITLE=Austin Lucas - Somebody Loves You
DYEAR=2009
DGENRE=Country
TTITLE0=Somebody Loves You
TTITLE1=Singing Man
TTITLE2=Resting Place
TTITLE3=Shoulders
TTITLE4=Wash My Sins Away
TTITLE5=Fountain Of Youth
TTITLE6=She Did
TTITLE7=Life I've Got
TTITLE8=Precious Little Heart
TTITLE9=Go West
TTITLE10=Farewell
EXTD=
EXTT0=
EXTT1=
EXTT2=
EXTT3=
EXTT4=
EXTT5=
EXTT6=
EXTT7=
EXTT8=
EXTT9=
EXTT10=
PLAYORDER=
